<svg xmlns="http://www.w3.org/2000/svg" version="1.1" xmlns:xlink="http://www.w3.org/1999/xlink" width="115.83633mm" height="57.076103mm"><svg width="115.83633mm" height="57.076103mm" viewBox="0 0 115.83634 57.076103" version="1.1" id="SvgjsSvg1014" xml:space="preserve" inkscape:version="1.4 (86a8ad7, 2024-10-11)" sodipodi:docname="logo.svg" xmlns:inkscape="http://www.inkscape.org/namespaces/inkscape" xmlns:sodipodi="http://sodipodi.sourceforge.net/DTD/sodipodi-0.dtd" xmlns="http://www.w3.org/2000/svg" xmlns:svg="http://www.w3.org/2000/svg"><sodipodi:namedview id="SvgjsSodipodi:namedview1013" pagecolor="#ffffff" bordercolor="#000000" borderopacity="0.25" inkscape:showpageshadow="2" inkscape:pageopacity="0.0" inkscape:pagecheckerboard="0" inkscape:deskcolor="#d1d1d1" inkscape:document-units="mm" showguides="true" inkscape:zoom="0.22582925" inkscape:cx="-1618.4794" inkscape:cy="1485.6357" inkscape:window-width="1280" inkscape:window-height="961" inkscape:window-x="-8" inkscape:window-y="-8" inkscape:window-maximized="1" inkscape:current-layer="layer5"></sodipodi:namedview><defs id="SvgjsDefs1012"></defs><g inkscape:groupmode="layer" id="SvgjsG1011" inkscape:label="vetor" style="display:inline" transform="translate(96.095115,-218.95499)"><g id="SvgjsG1010" inkscape:export-filename="logo-dark.png" inkscape:export-xdpi="96" inkscape:export-ydpi="96"><path id="SvgjsPath1009" style="fill:#cb0735;fill-opacity:1;stroke-width:1;stroke-linecap:square" d="m -66.426129,218.95499 -12.012187,10.52752 -1.191142,5.22966 v -9.11314 l -3.572908,0.15554 -1.397848,1.39785 1.397848,-0.10335 v 5.8508 l -12.892754,11.97705 h 8.284766 l 21.384225,-18.7079 21.125842,18.7079 h 8.284249 z m 79.679369,28.24117 c -2.13595,0 -3.76462,0.61409 -4.886,1.84226 -1.12137,1.20147 -1.68207,2.91026 -1.68207,5.1263 0,1.62866 0.3607,3.09663 1.08158,4.4049 0.72088,1.28157 1.98887,2.72336 3.80442,4.32532 1.44177,1.25487 2.42966,2.33648 2.96365,3.24425 0.53398,0.88108 0.80098,1.90876 0.80098,3.08353 0,0.98787 -0.19999,1.70877 -0.60048,2.16266 -0.37379,0.42718 -0.93449,0.64079 -1.68207,0.64079 -1.52186,0 -2.28306,-0.90779 -2.28306,-2.72335 v -1.92236 H 6.60507 v 1.60196 c 0,2.26944 0.5476,4.01854 1.64228,5.24671 1.09466,1.20147 2.70975,1.80196 4.84569,1.80196 2.16265,0 3.80495,-0.61409 4.92632,-1.84226 1.14807,-1.22817 1.72186,-2.99035 1.72186,-5.2865 0,-1.76215 -0.3471,-3.29714 -1.04128,-4.60541 -0.69418,-1.30827 -1.96217,-2.76366 -3.80442,-4.36562 -1.44177,-1.25486 -2.44327,-2.32287 -3.00395,-3.20394 -0.53399,-0.88108 -0.80099,-1.82867 -0.80099,-2.84324 0,-1.78886 0.7345,-2.68304 2.20297,-2.68304 0.72088,0 1.26797,0.22669 1.64176,0.68058 0.37379,0.42719 0.56069,1.12138 0.56069,2.08256 v 1.44177 h 4.16512 v -1.16117 c 0,-2.26944 -0.54709,-4.00493 -1.64176,-5.2064 -1.06797,-1.22817 -2.65687,-1.84226 -4.76612,-1.84226 z m -98.191935,0.19017 c -2.11935,0 -3.735622,0.60916 -4.848282,1.82779 -1.11265,1.19213 -1.668632,2.88769 -1.668632,5.08651 0,1.616 0.357522,3.07321 1.072802,4.37131 0.71528,1.27161 1.973524,2.70221 3.774964,4.29173 1.43056,1.24511 2.410549,2.31821 2.940389,3.21893 0.52984,0.87423 0.794783,1.89412 0.794783,3.05976 0,0.9802 -0.198449,1.69524 -0.595829,2.1456 -0.37088,0.42387 -0.927379,0.63614 -1.669149,0.63614 -1.51004,0 -2.264978,-0.90072 -2.264978,-2.70216 v -1.90789 h -4.132564 v 1.58956 c 0,2.25181 0.543198,3.98727 1.629358,5.20589 1.08617,1.19214 2.688625,1.788 4.807975,1.788 2.14585,0 3.774897,-0.60916 4.887557,-1.82779 1.13915,-1.21862 1.70894,-2.96686 1.70894,-5.24516 0,-1.74846 -0.344222,-3.27217 -1.033012,-4.57027 -0.68879,-1.2981 -1.94754,-2.74149 -3.77548,-4.331 -1.43056,-1.24512 -2.42385,-2.30489 -2.98018,-3.17913 -0.52984,-0.87423 -0.794784,-1.81485 -0.794784,-2.82154 0,-1.77495 0.728863,-2.66237 2.185913,-2.66237 0.71528,0 1.257961,0.22506 1.628841,0.67542 0.37089,0.42387 0.556556,1.11283 0.556556,2.06654 v 1.4304 h 4.132564 v -1.15238 c 0,-2.25181 -0.543198,-3.97397 -1.629358,-5.1661 -1.05968,-1.21863 -2.635534,-1.82779 -4.728394,-1.82779 z m 15.333948,0 c -2.11935,0 -3.735106,0.60916 -4.847766,1.82779 -1.11266,1.19213 -1.669149,2.88769 -1.669149,5.08651 0,1.616 0.35804,3.07321 1.07332,4.37131 0.71528,1.27161 1.973513,2.70221 3.774963,4.29173 1.43056,1.24511 2.410549,2.31821 2.940389,3.21893 0.52984,0.87423 0.794784,1.89412 0.794784,3.05976 0,0.9802 -0.19845,1.69524 -0.59583,2.1456 -0.37089,0.42387 -0.927368,0.63614 -1.669148,0.63614 -1.51003,0 -2.264978,-0.90072 -2.264978,-2.70216 v -1.90789 h -4.132565 v 1.58956 c 0,2.25181 0.542672,3.98727 1.628842,5.20589 1.08617,1.19214 2.689142,1.788 4.808492,1.788 2.14584,0 3.774897,-0.60916 4.887557,-1.82779 1.13915,-1.21862 1.708939,-2.96686 1.708939,-5.24516 0,-1.74846 -0.344232,-3.27217 -1.033012,-4.57027 -0.68879,-1.2981 -1.94754,-2.74149 -3.77548,-4.331 -1.43056,-1.24512 -2.42385,-2.30489 -2.98018,-3.17913 -0.52984,-0.87423 -0.794783,-1.81485 -0.794783,-2.82154 0,-1.77495 0.728346,-2.66237 2.185396,-2.66237 0.71528,0 1.258468,0.22506 1.629358,0.67542 0.37089,0.42387 0.556555,1.11283 0.556555,2.06654 v 1.4304 h 4.132564 v -1.15238 c 0,-2.25181 -0.543187,-3.97397 -1.629357,-5.1661 -1.05967,-1.21863 -2.636051,-1.82779 -4.728911,-1.82779 z m 13.991911,0.21032 v 28.03395 h 11.654069 v -4.00493 h -7.24917 v -24.02902 z m 47.804836,0 V 275.6306 H 4.20677 v -4.00493 h -7.60936 v -8.61032 h 6.04718 v -4.00493 h -6.04718 v -7.40885 h 7.60936 v -4.00492 z m -29.953212,0.15658 -4.539775,27.87737 h 4.061768 l 0.79685,-5.456 h 4.977991 v -0.0796 l 0.796334,5.53558 h 4.380611 l -4.539775,-27.87737 z m 13.21573,0 v 27.87737 h 4.380612 v -11.94759 h 1.5136 c 1.0089,0 1.71222,0.25209 2.11047,0.75654 0.42479,0.50445 0.63717,1.39418 0.63717,2.66857 v 5.09736 c 0,1.03545 0.027,1.75253 0.0801,2.15078 0.0531,0.39825 0.15902,0.82299 0.31832,1.27434 h 4.46019 c -0.21236,-0.4779 -0.34477,-0.95613 -0.39791,-1.43402 -0.0531,-0.50445 -0.0796,-1.15481 -0.0796,-1.95131 v -4.8984 c 0,-1.6461 -0.22613,-2.96057 -0.67747,-3.94292 -0.4248,-0.98234 -1.16785,-1.6327 -2.22984,-1.9513 v -0.0796 c 1.91159,-0.76995 2.86701,-2.60185 2.86701,-5.49579 v -1.71256 c 0,-2.17708 -0.51743,-3.78338 -1.55288,-4.81882 -1.03544,-1.062 -2.68146,-1.59267 -4.9382,-1.59267 z m 4.380612,3.98219 h 1.99161 c 0.76994,0 1.3271,0.22561 1.67225,0.67696 0.3717,0.45134 0.55759,1.18167 0.55759,2.19056 v 2.15077 c 0,1.062 -0.22562,1.81828 -0.67697,2.26963 -0.42479,0.45135 -1.07515,0.67696 -1.9513,0.67696 h -1.59318 z m -14.84819,0.87643 h 0.07958 l 1.951302,13.779 h -3.942912 z" inkscape:export-filename="img\logo-vermelha.png" inkscape:export-xdpi="96" inkscape:export-ydpi="96"></path><path id="SvgjsPath1008" style="fill:#000000;fill-opacity:1;stroke-width:1;stroke-linecap:square" d="m -45.869863,221.14608 -8.181413,7.09363 3.676261,3.26233 4.505152,-3.83181 19.727478,17.20671 h 7.404195 l -11.702124,-10.26811 v -6.36912 h 1.191141 l -1.191141,-0.9834 h -3.313493 v 8.49147 l -0.880567,-5.02244 z m -23.585124,14.8606 v 2.64066 h 2.588989 v -2.64066 z m 3.650423,0 v 2.64066 h 2.588989 v -2.64066 z m -3.650423,3.26181 v 2.64067 h 2.588989 v -2.64067 z m 3.650423,0 v 2.64067 h 2.588989 v -2.64067 z"></path></g></g></svg><style>@media (prefers-color-scheme: light) { :root { filter: none; } }
@media (prefers-color-scheme: dark) { :root { filter: none; } }
</style></svg>